<?xml version="1.0" encoding="UTF-8" standalone="no"?>
<!-- Created with Inkscape (http://www.inkscape.org/) -->

<svg
   width="135mm"
   height="45mm"
   viewBox="0 0 135 45.000001"
   version="1.1"
   id="svg1"
   xml:space="preserve"
   inkscape:version="1.3.2 (091e20ef0f, 2023-11-25)"
   sodipodi:docname="dst-data-cleaner-logotype.svg"
   inkscape:export-filename="dst-data-cleaner-logotype.png"
   inkscape:export-xdpi="96"
   inkscape:export-ydpi="96"
   xmlns:inkscape="http://www.inkscape.org/namespaces/inkscape"
   xmlns:sodipodi="http://sodipodi.sourceforge.net/DTD/sodipodi-0.dtd"
   xmlns="http://www.w3.org/2000/svg"
   xmlns:svg="http://www.w3.org/2000/svg"><sodipodi:namedview
     id="namedview1"
     pagecolor="#ffffff"
     bordercolor="#000000"
     borderopacity="0.25"
     inkscape:showpageshadow="2"
     inkscape:pageopacity="0.0"
     inkscape:pagecheckerboard="0"
     inkscape:deskcolor="#d1d1d1"
     inkscape:document-units="mm"
     inkscape:zoom="0.5"
     inkscape:cx="103"
     inkscape:cy="263"
     inkscape:window-width="3436"
     inkscape:window-height="1411"
     inkscape:window-x="0"
     inkscape:window-y="25"
     inkscape:window-maximized="1"
     inkscape:current-layer="layer1"
     showguides="true" /><defs
     id="defs1"><rect
       x="809.81097"
       y="158.35039"
       width="88.506752"
       height="100.3785"
       id="rect16" /><rect
       x="366.87784"
       y="609.25031"
       width="634.70093"
       height="63.569035"
       id="rect15" /><rect
       x="541.32977"
       y="450.42612"
       width="396.71527"
       height="84.8703"
       id="rect14" /><rect
       x="565.72516"
       y="121.06646"
       width="420.50101"
       height="114.25445"
       id="rect13" /><rect
       x="61.651367"
       y="158.13205"
       width="181.92525"
       height="64.4291"
       id="rect2" /><rect
       x="111.29407"
       y="258.01767"
       width="480.57541"
       height="298.62943"
       id="rect1" /><rect
       x="61.651367"
       y="158.13205"
       width="181.92525"
       height="64.4291"
       id="rect2-6" /><rect
       x="61.651367"
       y="158.13205"
       width="181.92525"
       height="64.4291"
       id="rect2-6-8" /><rect
       x="61.651367"
       y="158.13205"
       width="181.92525"
       height="64.4291"
       id="rect2-6-8-3" /><rect
       x="61.651367"
       y="158.13205"
       width="181.92525"
       height="64.4291"
       id="rect2-6-8-2" /><rect
       x="809.81097"
       y="158.35039"
       width="88.506752"
       height="100.3785"
       id="rect16-1" /><rect
       x="61.651367"
       y="158.13205"
       width="267.95513"
       height="49.843762"
       id="rect2-6-8-2-5" /><rect
       x="809.81097"
       y="158.35039"
       width="88.506752"
       height="100.3785"
       id="rect16-1-3" /><rect
       x="61.651367"
       y="158.13205"
       width="181.92525"
       height="64.4291"
       id="rect2-6-8-2-5-3" /><rect
       x="809.81097"
       y="158.35039"
       width="88.506752"
       height="100.3785"
       id="rect16-1-3-8" /><rect
       x="61.651367"
       y="158.13205"
       width="267.95514"
       height="49.843761"
       id="rect2-6-8-2-5-7" /><rect
       x="61.651367"
       y="158.13205"
       width="267.95514"
       height="49.843761"
       id="rect2-6-8-2-5-7-2" /></defs><g
     inkscape:label="Layer 1"
     inkscape:groupmode="layer"
     id="layer1"
     style="display:inline"
     transform="translate(-16.326942,-8.9126616)"><rect
       style="fill:#13fdd4;fill-opacity:1;stroke:none;stroke-width:2.70855;stroke-dasharray:none;stroke-opacity:1"
       id="rect20"
       width="135"
       height="45"
       x="16.326942"
       y="8.9126616"
       inkscape:label="background" /><g
       id="g4"
       transform="translate(3.1068638,4.0310908)"><text
         xml:space="preserve"
         transform="matrix(0.61890091,0,0,0.61890091,12.540409,-75.7591)"
         id="text2-3-5-8-8-3"
         style="font-style:normal;font-variant:normal;font-weight:bold;font-stretch:normal;font-size:27.3603px;font-family:Roboto;-inkscape-font-specification:'Roboto Bold';letter-spacing:-1.18px;white-space:pre;shape-inside:url(#rect2-6-8-2-5-7);display:inline;fill:#000000;fill-opacity:1;stroke-width:3.77953"
         inkscape:label="name"><tspan
           x="61.652344"
           y="183.29117"
           id="tspan1">DataCleaner</tspan></text><text
         xml:space="preserve"
         transform="matrix(0.61890091,0,0,0.61890091,12.98827,-82.914612)"
         id="text2-3-5-8-8-3-7"
         style="font-style:normal;font-variant:normal;font-weight:bold;font-stretch:normal;font-size:15.9602px;font-family:Roboto;-inkscape-font-specification:'Roboto Bold';letter-spacing:-1.18px;white-space:pre;shape-inside:url(#rect2-6-8-2-5-7-2);display:inline;fill:#000000;fill-opacity:1;stroke-width:3.77953"
         inkscape:label="name"><tspan
           x="61.652344"
           y="172.80854"
           id="tspan3"><tspan
             style="font-weight:300;-inkscape-font-specification:'Roboto Light'"
             id="tspan2">DST</tspan></tspan></text><g
         id="g3"
         transform="matrix(0.95585706,0,0,0.95585706,0.31936276,-2.5879489)"><path
           d="m 50.418727,21.152971 -7.27153,7.271539 -0.93167,-0.931666 v -0.02272 l -0.0227,-0.02272 c -0.46584,-0.414706 -1.0737,-0.613536 -1.65882,-0.613536 -0.58515,0 -1.1504,0.218714 -1.59066,0.658984 l -0.11358,0.09089 -0.36358,0.363577 -0.24996,0.204513 -6.63528,5.158249 -0.63626,0.522643 7.83963,7.839629 0.52265,-0.63626 5.15831,-6.567113 0.72717,-0.727153 c 0.02314,0.01069 0.02992,-0.01491 0.0456,-0.02272 0.82942,-0.934506 0.8351,-2.368932 -0.0454,-3.249469 l -0.99985,-0.999838 7.27156,-7.271541 z m -9.88474,7.1352 c 0.22439,-0.0056 0.47151,0.071 0.65898,0.227234 0.009,0.0056 0.0142,0.01705 0.0228,0.02272 l 2.95408,2.954062 c 0.27268,0.272684 0.29823,0.852136 0,1.227073 -0.0114,0.0142 -0.0114,0.03125 -0.0228,0.04546 l -0.22724,0.204513 -4.20386,-4.203861 0.24996,-0.249959 c 0.13918,-0.139182 0.34369,-0.221555 0.5681,-0.227236 z m -1.93152,1.40886 4.31749,4.317477 -4.27203,5.453656 -1.04528,-1.045284 1.56792,-1.636096 -1.04529,-0.999837 -1.5452,1.613373 -0.95439,-0.95439 2.81773,-2.840446 -1.02257,-1.022561 -2.84044,2.817722 -1.43159,-1.431584 z"
           id="path1"
           style="stroke:none;stroke-width:0.727156;stroke-opacity:1"
           sodipodi:nodetypes="cccccscccccccccccccccccccccccsccccccccccccccc" /><path
           style="fill:#000000;fill-opacity:1;fill-rule:evenodd;stroke:none;stroke-width:0.264583;stroke-dasharray:0.264583, 0.529167;stroke-opacity:1"
           d="m 37.094993,41.827148 c 0,0 -3.666641,0.476742 -7.492479,-1.048972 -3.959105,-1.57886 -4.063552,-4.777351 -4.063552,-4.777351 0,0 2.273114,3.044714 4.886964,3.925885 2.733624,0.92155 6.669067,1.900438 6.669067,1.900438 z"
           id="path3"
           sodipodi:nodetypes="cscsc" /><path
           style="display:inline;fill:#000000;fill-opacity:1;fill-rule:evenodd;stroke:none;stroke-width:0.192461;stroke-dasharray:0.192461, 0.384923;stroke-opacity:1"
           d="m 36.22778,41.099077 c 0,0 -2.603788,-0.147507 -5.061702,-1.794236 -2.543535,-1.70409 -2.206629,-4.07837 -2.206629,-4.07837 0,0 1.18672,2.556116 2.886625,3.562223 1.777796,1.052215 4.381706,2.310383 4.381706,2.310383 z"
           id="path3-9"
           sodipodi:nodetypes="cscsc" /></g></g></g></svg>
